# xmcd
#
# Track frame offsets:
#       150
#       15700
#       29231
#       47417
#       60830
#       77681
#       95529
#       112763
#       128012
#
# Disc length: 1982 seconds
#
# Revision: 0
# Processed by: cddbd v1.4PL0 Copyright (c) Steve Scherf et al.
# Submitted via: WhereIsIt 3.51
#
DISCID=6307bc09
DTITLE=Marc Ekins - Regular Romeo
DYEAR=1997
DGENRE=Country
TTITLE0=Regular Romeo
TTITLE1=Barstool
TTITLE2=Doin' Time
TTITLE3=So Far
TTITLE4=2000 Miles
TTITLE5=Innocence Lost
TTITLE6=Move This Mountain
TTITLE7=Fiction
TTITLE8=Cowboy Dream
EXTD=
EXTT0=
EXTT1=
EXTT2=
EXTT3=
EXTT4=
EXTT5=
EXTT6=
EXTT7=
EXTT8=
PLAYORDER=
